#!OML:ASF I:\Actors\actors\Patient Classification 2\Patient 1\Session 1\actor1.ASF
:FULLY-SPECIFIED
:DEGREES
725
root -0.811236 18.6928 5.83108 1.3152 -1.41198 -1.55913
lowerback 3.5183 0.571234 -0.566248
upperback -2.7168 0.745612 0.325067
thorax -4.79085 0.394988 0.596621
lowerneck -12.1767 1.86833 3.44552
upperneck 22.8904 1.75576 0.410518
head 9.23361 1.16482 -0.237732
rclavicle -1.50517e-014 -2.78299e-015
rhumerus -53.0425 -5.9585 -82.696
rradius 45.5435
rwrist 10.2244
rhand -4.35869 -35.8098
rfingers 7.12502
rthumb 21.4095 -424.647
lclavicle -1.50517e-014 -2.78299e-015
lhumerus -45.4297 3.5719 87.8054
lradius 40.0144
lwrist -2.02729
lhand -10.121 -21.9079
lfingers 7.12502
lthumb 15.8671 7.46201
rfemur 7.39781 4.14065 16.3076
rtibia 1.43125e-014
rfoot -18.8726 -11.8559
rtoes -1.94604
lfemur -3.41961 -6.49881 -12.4061
ltibia 19.8951
lfoot -22.5017 14.3305
ltoes -55.0423
726
root -0.81018 18.6936 5.83028 1.31161 -1.42981 -1.58192
lowerback 3.52391 0.569693 -0.531966
upperback -2.7055 0.745703 0.330494
thorax -4.78186 0.393922 0.583008
lowerneck -12.1351 1.88601 3.41474
upperneck 22.8417 1.7836 0.435123
head 9.20865 1.17735 -0.221539
rclavicle 2.77056e-015 -1.98785e-016
rhumerus -53.0651 -5.90267 -82.7867
rradius 45.5179
rwrist 10.162
rhand -4.39439 -35.7715
rfingers 7.12502
rthumb 21.3752 -424.613
lclavicle 2.77056e-015 -1.98785e-016
lhumerus -45.4431 3.61033 87.8224
lradius 40.0437
lwrist -2.09116
lhand -10.045 -22.0226
lfingers 7.12502
lthumb 15.9403 7.3414
rfemur 7.39599 4.15961 16.328
rtibia -1.43125e-014
rfoot -18.88 -11.8605
rtoes -2.06954
lfemur -3.41993 -6.46911 -12.387
ltibia 19.9077
lfoot -22.4811 14.3313
ltoes -55.1734
727
root -0.808569 18.6938 5.82914 1.31219 -1.44658 -1.57948
lowerback 3.52361 0.57065 -0.527256
upperback -2.69509 0.747528 0.337036
thorax -4.77089 0.394732 0.587048
lowerneck -12.1451 1.90178 3.39946
upperneck 22.8609 1.81201 0.420987
head 9.21754 1.18799 -0.220354
rclavicle 8.6285e-015 -1.98785e-016
rhumerus -53.0799 -5.86289 -82.8413
rradius 45.5529
rwrist 10.2061
rhand -4.12179 -35.7016
rfingers 7.12502
rthumb 21.637 -424.513
lclavicle 8.6285e-015 -1.98785e-016
lhumerus -45.45 3.61338 87.8802
lradius 40.0756
lwrist -2.08396
lhand -10.0652 -22.1
lfingers 7.12502
lthumb 15.9208 7.26565
rfemur 7.38421 4.17726 16.3189
rtibia -9.54166e-015
rfoot -18.8843 -11.8719
rtoes -1.93964
lfemur -3.42758 -6.4562 -12.397
ltibia 19.9197
lfoot -22.469 14.3437
ltoes -55.1937
728
root -0.807588 18.6942 5.8273 1.33444 -1.45245 -1.57409
lowerback 3.51276 0.573859 -0.542882
upperback -2.69613 0.751521 0.349379
thorax -4.76625 0.397456 0.608364
lowerneck -12.2025 1.89805 3.34027
upperneck 22.961 1.8027 0.479599
head 9.2618 1.1859 -0.190377
rclavicle 8.56016e-015 -3.77691e-015
rhumerus -53.0885 -5.81399 -82.8811
rradius 45.581
rwrist 10.2297
rhand -3.94427 -35.5924
rfingers 7.12502
rthumb 21.8075 -424.384
lclavicle 8.56016e-015 -3.77691e-015
lhumerus -45.4439 3.55618 87.9862
lradius 40.1162
lwrist -1.99567
lhand -10.174 -21.9878
lfingers 7.12502
lthumb 15.8161 7.38611
rfemur 7.34621 4.18255 16.307
rtibia -1.43125e-014
rfoot -18.8678 -11.9001
rtoes -1.81958
lfemur -3.46639 -6.4958 -12.4061
ltibia 19.9311
lfoot -22.4961 14.3697
ltoes -55.1493
729
root -0.807381 18.6944 5.82577 1.35198 -1.46591 -1.59179
lowerback 3.51725 0.578642 -0.538629
upperback -2.7051 0.758618 0.360119
thorax -4.77837 0.401088 0.616445
lowerneck -12.2324 1.88688 3.2955
upperneck 23.0145 1.79265 0.491165
head 9.2852 1.17912 -0.179516
rclavicle -1.47225e-015 -1.98785e-016
rhumerus -53.0938 -5.7364 -82.9572
rradius 45.5879
rwrist 10.1235
rhand -3.95955 -35.5953
rfingers 7.12502
rthumb 21.7928 -424.388
lclavicle -1.47225e-015 -1.98785e-016
lhumerus -45.4574 3.47686 88.0879
lradius 40.1763
lwrist -1.83591
lhand -10.2629 -21.9506
lfingers 7.12502
lthumb 15.7305 7.43011
rfemur 7.31627 4.19537 16.3258
rtibia -9.54166e-015
rfoot -18.874 -11.9032
rtoes -1.76591
lfemur -3.48978 -6.52266 -12.3883
ltibia 19.9338
lfoot -22.5121 14.4025
ltoes -55.1778
730
root -0.806926 18.6941 5.82502 1.35795 -1.48627 -1.59818
lowerback 3.51219 0.580965 -0.541541
upperback -2.7041 0.761763 0.364407
thorax -4.7746 0.402813 0.622325
lowerneck -12.2081 1.88263 3.26579
upperneck 22.9687 1.80544 0.446982
head 9.26467 1.17725 -0.188682
rclavicle -3.43525e-015 1.59028e-015
rhumerus -53.0781 -5.64869 -83.0522
rradius 45.611
rwrist 10.0586
rhand -3.93466 -35.6423
rfingers 7.12502
rthumb 21.8167 -424.433
lclavicle -3.43525e-015 1.59028e-015
lhumerus -45.4473 3.49973 88.09
lradius 40.113
lwrist -1.74927
lhand -10.2381 -22.5764
lfingers 7.12502
lthumb 15.7543 6.8024
rfemur 7.30079 4.21541 16.3341
rtibia 4.77083e-015
rfoot -18.8295 -11.9228
rtoes -2.06525
lfemur -3.4926 -6.4699 -12.377
ltibia 19.933
lfoot -22.4988 14.3701
ltoes -55.1707
731
root -0.806072 18.6941 5.82418 1.35938 -1.49556 -1.59453
lowerback 3.49626 0.580386 -0.566315
upperback -2.68699 0.760213 0.377452
thorax -4.7482 0.402988 0.650069
lowerneck -12.2237 1.8814 3.21063
upperneck 22.9586 1.81133 0.464022
head 9.26321 1.17697 -0.172806
rclavicle -8.59744e-015 7.95139e-016
rhumerus -53.0347 -5.60282 -83.104
rradius 45.6529
rwrist 10.0362
rhand -3.95843 -35.6987
rfingers 7.12502
rthumb 21.7939 -424.492
lclavicle -8.59744e-015 7.95139e-016
lhumerus -45.384 3.61016 88.0247
lradius 39.9172
lwrist -1.72907
lhand -10.1847 -23.702
lfingers 7.12502
lthumb 15.8058 5.67272
rfemur 7.29303 4.22491 16.3279
rtibia 9.54166e-015
rfoot -18.7833 -11.9549
rtoes -2.37954
lfemur -3.49548 -6.43327 -12.3785
ltibia 19.9346
lfoot -22.4998 14.3239
ltoes -55.0872
732
root -0.804986 18.6945 5.82292 1.36127 -1.50068 -1.58721
lowerback 3.47975 0.579408 -0.58969
upperback -2.66759 0.758182 0.38972
thorax -4.71906 0.402837 0.676276
lowerneck -12.2487 1.88033 3.18664
upperneck 22.9772 1.81327 0.467163
head 9.27403 1.1763 -0.16715
rclavicle 1.66482e-014 1.19271e-015
rhumerus -52.9822 -5.62234 -83.1206
rradius 45.6988
rwrist 10.0018
rhand -4.07104 -35.7111
rfingers 7.12502
rthumb 21.6857 -424.517
lclavicle 1.66482e-014 1.19271e-015
lhumerus -45.3171 3.69084 87.999
lradius 39.8253
lwrist -1.70576
lhand -10.176 -24.2949
lfingers 7.12502
lthumb 15.8142 5.07922
rfemur 7.28737 4.23057 16.3134
rtibia -2.06736e-014
rfoot -18.8306 -11.9361
rtoes -2.11553
lfemur -3.50062 -6.46028 -12.3948
ltibia 19.9336
lfoot -22.4963 14.3695
ltoes -55.0514
733
root -0.803992 18.6939 5.82174 1.36473 -1.50303 -1.57578
lowerback 3.45576 0.578197 -0.602366
upperback -2.65269 0.756054 0.392123
thorax -4.69006 0.402114 0.686344
lowerneck -12.2494 1.8814 3.19474
upperneck 22.9768 1.82009 0.43759
head 9.27447 1.17694 -0.177861
rclavicle 8.07563e-017 -1.19271e-015
rhumerus -52.9378 -5.64576 -83.1368
rradius 45.7621
rwrist 9.95612
rhand -4.15932 -35.6104
rfingers 7.12502
rthumb 21.601 -424.426
lclavicle 8.07563e-017 -1.19271e-015
lhumerus -45.2719 3.67201 88.0393
lradius 39.8781
lwrist -1.66325
lhand -10.1915 -24.2407
lfingers 7.12502
lthumb 15.7992 5.13454
rfemur 7.28045 4.23314 16.2958
rtibia 3.65764e-014
rfoot -18.8607 -11.9013
rtoes -1.66259
lfemur -3.49728 -6.50503 -12.4146
ltibia 19.9171
lfoot -22.5143 14.4053
ltoes -55.0068
734
root -0.803776 18.6925 5.82092 1.36013 -1.49963 -1.57383
lowerback 3.44224 0.575091 -0.608626
upperback -2.6392 0.751615 0.392335
thorax -4.66831 0.400012 0.69061
lowerneck -12.2511 1.88216 3.19552
upperneck 22.9765 1.82129 0.43593
head 9.27471 1.17737 -0.178411
rclavicle 2.9445e-015 -7.95139e-016
rhumerus -52.8848 -5.61704 -83.177
rradius 45.8032
rwrist 9.85588
rhand -4.3156 -35.4957
rfingers 7.12502
rthumb 21.4509 -424.328
lclavicle 2.9445e-015 -7.95139e-016
lhumerus -45.2547 3.55903 88.1123
lradius 39.9888
lwrist -1.53712
lhand -10.1931 -24.1625
lfingers 7.12502
lthumb 15.7977 5.21285
rfemur 7.28357 4.2301 16.2937
rtibia 9.54166e-015
rfoot -18.8347 -11.8978
rtoes -1.55334
lfemur -3.47487 -6.5016 -12.4141
ltibia 19.8759
lfoot -22.5214 14.3658
ltoes -54.9711
735
root -0.808561 18.6959 5.82067 1.59758 -1.73594 -1.54381
lowerback 3.18489 0.651322 -0.732128
upperback -2.69282 0.848377 0.396371
thorax -4.58149 0.452132 0.759344
lowerneck -12.2324 1.88288 3.21499
upperneck 22.9563 1.82472 0.411413
head 9.26464 1.17778 -0.189974
rclavicle -5.82066e-015 -3.77691e-015
rhumerus -52.7669 -5.43633 -83.3034
rradius 45.7192
rwrist 9.66512
rhand -4.49076 -35.458
rfingers 7.12502
rthumb 21.2826 -424.309
lclavicle -5.82066e-015 -3.77691e-015
lhumerus -45.2386 3.46359 88.1613
lradius 40.1007
lwrist -1.39823
lhand -10.1633 -24.2602
lfingers 7.12502
lthumb 15.8264 5.11294
rfemur 6.97967 4.45004 16.2488
rtibia 3.18055e-015
rfoot -18.787 -11.9389
rtoes -1.6466
lfemur -3.68423 -6.35257 -12.4263
ltibia 19.8821
lfoot -22.5844 14.4526
ltoes -54.9819
736
root -0.82283 18.7066 5.82086 2.35327 -2.43242 -1.50684
lowerback 2.39548 0.881935 -1.02631
upperback -2.89127 1.14888 0.414447
thorax -4.35191 0.611452 0.931895
lowerneck -12.1961 1.87616 3.24842
upperneck 22.9276 1.81715 0.379621
head 9.2484 1.17341 -0.20785
rclavicle -5.65294e-015 5.96354e-015
rhumerus -52.6201 -5.14474 -83.5115
rradius 45.5906
rwrist 9.44927
rhand -4.54546 -35.5127
rfingers 7.12502
rthumb 21.2301 -424.37
lclavicle -5.65294e-015 5.96354e-015
lhumerus -45.2038 3.38935 88.1694
lradius 40.1897
lwrist -1.35441
lhand -10.1068 -24.3284
lfingers 7.12502
lthumb 15.8808 5.04038
rfemur 6.01819 5.09455 16.1589
rtibia 9.54166e-015
rfoot -18.6856 -12.0489
rtoes -1.71667
lfemur -4.33885 -5.92702 -12.4058
ltibia 19.8751
lfoot -22.7536 14.7237
ltoes -54.8939
737
root -0.776857 18.6996 5.80043 1.67075 -2.18978 -1.55275
lowerback 3.40616 0.803786 -0.234569
upperback -2.76791 1.07302 0.270664
thorax -4.77787 0.54545 0.330673
lowerneck -12.1691 1.87137 3.24863
upperneck 22.9036 1.80942 0.388821
head 9.23479 1.17061 -0.205995
rclavicle -9.24349e-015 2.38542e-015
rhumerus -52.5711 -5.12287 -83.5601
rradius 45.6542
rwrist 9.48808
rhand -5.06628 -35.3109
rfingers 7.12502
rthumb 20.7297 -424.224
lclavicle -9.24349e-015 2.38542e-015
lhumerus -45.1564 3.31336 88.1805
lradius 40.2423
lwrist -1.33885
lhand -10.1014 -24.3164
lfingers 7.12502
lthumb 15.886 5.05194
rfemur 6.6458 4.91859 16.1065
rtibia -7.95139e-015
rfoot -18.6233 -12.1394
rtoes -2.19928
lfemur -3.72478 -6.75529 -12.6416
ltibia 19.8815
lfoot -22.971 15.1431
ltoes -54.703
738
root -0.796497 18.6932 5.81205 1.40771 -1.69068 -1.55903
lowerback 3.46245 0.641225 -0.511966
upperback -2.65806 0.843371 0.347815
thorax -4.69885 0.441731 0.583212
lowerneck -12.1569 1.87702 3.23095
upperneck 22.9121 1.81715 0.407857
head 9.23521 1.17487 -0.195682
rclavicle -1.2834e-014 1.98785e-016
rhumerus -52.6091 -5.3368 -83.4391
rradius 45.8927
rwrist 9.72586
rhand -5.47903 -35.1254
rfingers 7.12502
rthumb 20.3331 -424.081
lclavicle -1.2834e-014 1.98785e-016
lhumerus -45.0919 3.30852 88.1888
lradius 40.2113
lwrist -1.34398
lhand -10.2298 -24.3649
lfingers 7.12502
lthumb 15.7624 5.01333
rfemur 7.15229 4.42304 16.2367
rtibia 2.54444e-014
rfoot -18.8079 -11.93
rtoes -1.87865
lfemur -3.50525 -6.46051 -12.475
ltibia 19.8895
lfoot -22.6271 14.4446
ltoes -54.8998
739
root -0.803939 18.6917 5.8149 1.32233 -1.50713 -1.54787
lowerback 3.48744 0.582211 -0.63134
upperback -2.6355 0.758631 0.368808
thorax -4.69028 0.403865 0.678081
lowerneck -12.1495 1.87851 3.20784
upperneck 22.9578 1.81353 0.452919
head 9.24902 1.17652 -0.176623
rclavicle 8.5788e-015 -5.1684e-015
rhumerus -52.6401 -5.40818 -83.4033
rradius 46.0923
rwrist 9.76867
rhand -5.10357 -35.0987
rfingers 7.12502
rthumb 20.6939 -424.015
lclavicle 8.5788e-015 -5.1684e-015
lhumerus -45.0451 3.3375 88.1685
lradius 40.1602
lwrist -1.39907
lhand -10.418 -24.4144
lfingers 7.12502
lthumb 15.5811 4.978
rfemur 7.32127 4.23984 16.266
rtibia -1.43125e-014
rfoot -18.8689 -11.8353
rtoes -1.548
lfemur -3.46803 -6.3356 -12.4269
ltibia 19.9273
lfoot -22.48 14.2104
ltoes -55.0462
